<svg width="176" height="176" viewBox="0 0 176 176" fill="none" xmlns="http://www.w3.org/2000/svg">
<g filter="url(#filter0_d_65_107)">
<path d="M58 54C58 49.5817 61.5817 46 66 46H88H110C114.418 46 118 49.5817 118 54V98C118 102.418 114.418 106 110 106H66C61.5817 106 58 102.418 58 98V54Z" fill="white"/>
<path d="M120 98V54C120 48.4772 115.523 44 110 44H88H66C60.4772 44 56 48.4772 56 54V98C56 103.523 60.4772 108 66 108H110C115.523 108 120 103.523 120 98Z" stroke="white" stroke-width="4"/>
</g>
<defs>
<filter id="filter0_d_65_107" x="0" y="0" width="176" height="176" filterUnits="userSpaceOnUse" color-interpolation-filters="sRGB">
<feFlood flood-opacity="0" result="BackgroundImageFix"/>
<feColorMatrix in="SourceAlpha" type="matrix" values="0 0 0 0 0 0 0 0 0 0 0 0 0 0 0 0 0 0 127 0" result="hardAlpha"/>
<feOffset dy="12"/>
<feGaussianBlur stdDeviation="27"/>
<feComposite in2="hardAlpha" operator="out"/>
<feColorMatrix type="matrix" values="0 0 0 0 0.305882 0 0 0 0 0.270588 0 0 0 0 0.243137 0 0 0 0.27 0"/>
<feBlend mode="normal" in2="BackgroundImageFix" result="effect1_dropShadow_65_107"/>
<feBlend mode="normal" in="SourceGraphic" in2="effect1_dropShadow_65_107" result="shape"/>
</filter>
</defs>
</svg>
