<svg width="191" height="202" viewBox="0 0 191 202" fill="none" xmlns="http://www.w3.org/2000/svg">
<g filter="url(#filter0_d_65_87)">
<path d="M58 54C58 49.5817 61.5817 46 66 46H95.5H125C129.418 46 133 49.5817 133 54V124C133 128.418 129.418 132 125 132H66C61.5817 132 58 128.418 58 124V54Z" fill="#BFB1BD" fill-opacity="0.5" shape-rendering="crispEdges"/>
<path d="M135 124V54C135 48.4772 130.523 44 125 44H95.5H66C60.4772 44 56 48.4772 56 54V124C56 129.523 60.4772 134 66 134H125C130.523 134 135 129.523 135 124Z" stroke="white" stroke-width="4" shape-rendering="crispEdges"/>
</g>
<defs>
<filter id="filter0_d_65_87" x="0" y="0" width="191" height="202" filterUnits="userSpaceOnUse" color-interpolation-filters="sRGB">
<feFlood flood-opacity="0" result="BackgroundImageFix"/>
<feColorMatrix in="SourceAlpha" type="matrix" values="0 0 0 0 0 0 0 0 0 0 0 0 0 0 0 0 0 0 127 0" result="hardAlpha"/>
<feOffset dy="12"/>
<feGaussianBlur stdDeviation="27"/>
<feComposite in2="hardAlpha" operator="out"/>
<feColorMatrix type="matrix" values="0 0 0 0 0.305882 0 0 0 0 0.270588 0 0 0 0 0.243137 0 0 0 0.27 0"/>
<feBlend mode="normal" in2="BackgroundImageFix" result="effect1_dropShadow_65_87"/>
<feBlend mode="normal" in="SourceGraphic" in2="effect1_dropShadow_65_87" result="shape"/>
</filter>
</defs>
</svg>
