<svg width="100" height="100" viewBox="0 0 100 100" fill="none" xmlns="http://www.w3.org/2000/svg">
<g filter="url(#filter0_ddd_36_270)">
<circle cx="49.6591" cy="39.6591" r="29.6591" fill="white"/>
</g>
<g clip-path="url(#clip0_36_270)">
<path d="M58.4993 32.2692C57.9885 31.7582 57.3821 31.3528 56.7147 31.0763C56.0472 30.7997 55.3318 30.6573 54.6093 30.6573C53.8868 30.6573 53.1714 30.7997 52.5039 31.0763C51.8365 31.3528 51.2301 31.7582 50.7193 32.2692L49.6593 33.3292L48.5993 32.2692C47.5676 31.2375 46.1683 30.6579 44.7093 30.6579C43.2503 30.6579 41.851 31.2375 40.8193 32.2692C39.7876 33.3009 39.208 34.7001 39.208 36.1592C39.208 37.6182 39.7876 39.0175 40.8193 40.0492L41.8793 41.1092L49.6593 48.8892L57.4393 41.1092L58.4993 40.0492C59.0103 39.5384 59.4157 38.932 59.6922 38.2645C59.9688 37.5971 60.1111 36.8817 60.1111 36.1592C60.1111 35.4367 59.9688 34.7213 59.6922 34.0538C59.4157 33.3864 59.0103 32.7799 58.4993 32.2692V32.2692Z" stroke="black" stroke-width="2" stroke-linecap="round" stroke-linejoin="round"/>
</g>
<defs>
<filter id="filter0_ddd_36_270" x="0" y="0" width="99.3181" height="99.3181" filterUnits="userSpaceOnUse" color-interpolation-filters="sRGB">
<feFlood flood-opacity="0" result="BackgroundImageFix"/>
<feColorMatrix in="SourceAlpha" type="matrix" values="0 0 0 0 0 0 0 0 0 0 0 0 0 0 0 0 0 0 127 0" result="hardAlpha"/>
<feOffset/>
<feGaussianBlur stdDeviation="0.5"/>
<feColorMatrix type="matrix" values="0 0 0 0 0 0 0 0 0 0 0 0 0 0 0 0 0 0 0.04 0"/>
<feBlend mode="normal" in2="BackgroundImageFix" result="effect1_dropShadow_36_270"/>
<feColorMatrix in="SourceAlpha" type="matrix" values="0 0 0 0 0 0 0 0 0 0 0 0 0 0 0 0 0 0 127 0" result="hardAlpha"/>
<feOffset dy="2"/>
<feGaussianBlur stdDeviation="3"/>
<feColorMatrix type="matrix" values="0 0 0 0 0 0 0 0 0 0 0 0 0 0 0 0 0 0 0.04 0"/>
<feBlend mode="normal" in2="effect1_dropShadow_36_270" result="effect2_dropShadow_36_270"/>
<feColorMatrix in="SourceAlpha" type="matrix" values="0 0 0 0 0 0 0 0 0 0 0 0 0 0 0 0 0 0 127 0" result="hardAlpha"/>
<feOffset dy="10"/>
<feGaussianBlur stdDeviation="10"/>
<feColorMatrix type="matrix" values="0 0 0 0 0 0 0 0 0 0 0 0 0 0 0 0 0 0 0.04 0"/>
<feBlend mode="normal" in2="effect2_dropShadow_36_270" result="effect3_dropShadow_36_270"/>
<feBlend mode="normal" in="SourceGraphic" in2="effect3_dropShadow_36_270" result="shape"/>
</filter>
<clipPath id="clip0_36_270">
<rect width="24" height="24" fill="white" transform="translate(37.6592 27.6592)"/>
</clipPath>
</defs>
</svg>
